<svg width="159" height="42" viewBox="0 0 159 42" fill="none" xmlns="http://www.w3.org/2000/svg">
<rect x="0.670166" y="0.175537" width="41.7553" height="41.7553" fill="#E5BE2C"/>
<rect x="4.01062" y="3.51593" width="35.0745" height="35.0745" fill="#202121"/>
<rect x="7.35107" y="6.85638" width="28.3936" height="28.3936" fill="#E5BE2C"/>
<path d="M62.709 13.93C63.457 13.93 64.1087 14.0603 64.664 14.321C65.2307 14.5703 65.667 14.95 65.973 15.46C66.2903 15.9587 66.449 16.5877 66.449 17.347C66.449 17.8003 66.3753 18.2423 66.228 18.673C66.092 19.0923 65.8653 19.472 65.548 19.812C65.242 20.152 64.8453 20.424 64.358 20.628C63.882 20.832 63.304 20.934 62.624 20.934H60.754V26H59.921V13.93H62.709ZM62.624 20.135C63.2133 20.135 63.7007 20.0443 64.086 19.863C64.4827 19.6703 64.7887 19.4323 65.004 19.149C65.2307 18.8543 65.3893 18.5483 65.48 18.231C65.582 17.9137 65.633 17.619 65.633 17.347C65.633 16.9617 65.5707 16.6103 65.446 16.293C65.3213 15.9757 65.1343 15.7037 64.885 15.477C64.647 15.239 64.3523 15.0577 64.001 14.933C63.6497 14.797 63.2473 14.729 62.794 14.729H60.754V20.135H62.624ZM70.1331 19.353L70.2181 21.393L70.1161 21.138C70.2634 20.73 70.4958 20.3787 70.8131 20.084C71.1304 19.7893 71.4818 19.5627 71.8671 19.404C72.2638 19.2453 72.6434 19.166 73.0061 19.166L72.9721 19.948C72.4621 19.948 71.9974 20.0613 71.5781 20.288C71.1701 20.5147 70.8414 20.8207 70.5921 21.206C70.3541 21.58 70.2351 22.005 70.2351 22.481V26H69.4361V19.353H70.1331ZM74.845 22.634C74.845 21.988 74.998 21.3987 75.304 20.866C75.6213 20.3333 76.0463 19.914 76.579 19.608C77.123 19.2907 77.7293 19.132 78.398 19.132C79.078 19.132 79.6843 19.2907 80.217 19.608C80.7497 19.914 81.169 20.3333 81.475 20.866C81.781 21.3987 81.934 21.988 81.934 22.634C81.934 23.28 81.781 23.8693 81.475 24.402C81.169 24.9347 80.744 25.3597 80.2 25.677C79.6673 25.983 79.0667 26.136 78.398 26.136C77.718 26.136 77.1117 25.9887 76.579 25.694C76.0463 25.388 75.6213 24.9743 75.304 24.453C74.998 23.9203 74.845 23.314 74.845 22.634ZM75.644 22.651C75.644 23.1723 75.763 23.6483 76.001 24.079C76.2503 24.4983 76.579 24.8327 76.987 25.082C77.4063 25.3313 77.871 25.456 78.381 25.456C78.891 25.456 79.35 25.3313 79.758 25.082C80.1773 24.8327 80.506 24.4983 80.744 24.079C80.9933 23.6483 81.118 23.1723 81.118 22.651C81.118 22.1297 80.9933 21.6593 80.744 21.24C80.506 20.8093 80.1773 20.4693 79.758 20.22C79.35 19.9593 78.891 19.829 78.381 19.829C77.8597 19.829 77.3893 19.965 76.97 20.237C76.562 20.4977 76.239 20.8433 76.001 21.274C75.763 21.7047 75.644 22.1637 75.644 22.651ZM87.7744 29.247C87.4004 29.247 87.0434 29.2017 86.7034 29.111C86.3634 29.0317 86.0291 28.89 85.7004 28.686C85.3718 28.482 85.0318 28.2157 84.6804 27.887L85.1564 27.343C85.6438 27.8077 86.0971 28.1193 86.5164 28.278C86.9358 28.448 87.3438 28.533 87.7404 28.533C88.4318 28.533 88.9814 28.4197 89.3894 28.193C89.7974 27.9777 90.0921 27.683 90.2734 27.309C90.4548 26.9463 90.5511 26.5383 90.5624 26.085L90.5794 23.926L90.7664 24.13C90.5398 24.7193 90.1318 25.201 89.5424 25.575C88.9644 25.949 88.3071 26.136 87.5704 26.136C86.9471 26.136 86.3748 25.983 85.8534 25.677C85.3434 25.3597 84.9354 24.9403 84.6294 24.419C84.3234 23.8863 84.1704 23.297 84.1704 22.651C84.1704 21.9597 84.3291 21.3533 84.6464 20.832C84.9638 20.3107 85.3944 19.9027 85.9384 19.608C86.4824 19.302 87.0831 19.149 87.7404 19.149C88.3524 19.149 88.9304 19.3077 89.4744 19.625C90.0298 19.9423 90.4321 20.3617 90.6814 20.883L90.5794 21.257L90.6644 19.353H91.3784V26.102C91.3784 26.646 91.2538 27.156 91.0044 27.632C90.7664 28.1193 90.3811 28.5103 89.8484 28.805C89.3271 29.0997 88.6358 29.247 87.7744 29.247ZM84.9694 22.634C84.9694 23.1553 85.0941 23.6313 85.3434 24.062C85.5928 24.4813 85.9271 24.8213 86.3464 25.082C86.7771 25.3313 87.2531 25.456 87.7744 25.456C88.2731 25.456 88.7264 25.3483 89.1344 25.133C89.5424 24.9063 89.8768 24.606 90.1374 24.232C90.3981 23.858 90.5454 23.4557 90.5794 23.025V22.039C90.4888 21.6083 90.3074 21.2287 90.0354 20.9C89.7748 20.5713 89.4461 20.3107 89.0494 20.118C88.6641 19.9253 88.2391 19.829 87.7744 19.829C87.2531 19.829 86.7771 19.948 86.3464 20.186C85.9271 20.424 85.5928 20.7527 85.3434 21.172C85.0941 21.5913 84.9694 22.0787 84.9694 22.634ZM95.6191 19.353L95.7041 21.393L95.6021 21.138C95.7495 20.73 95.9818 20.3787 96.2991 20.084C96.6165 19.7893 96.9678 19.5627 97.3531 19.404C97.7498 19.2453 98.1295 19.166 98.4921 19.166L98.4581 19.948C97.9481 19.948 97.4835 20.0613 97.0641 20.288C96.6561 20.5147 96.3275 20.8207 96.0781 21.206C95.8401 21.58 95.7211 22.005 95.7211 22.481V26H94.9221V19.353H95.6191ZM103.914 26.136C103.279 26.136 102.701 25.9943 102.18 25.711C101.67 25.4163 101.262 25.0083 100.956 24.487C100.661 23.9657 100.514 23.3593 100.514 22.668C100.514 21.9313 100.672 21.3023 100.99 20.781C101.307 20.2483 101.738 19.846 102.282 19.574C102.826 19.2907 103.443 19.149 104.135 19.149C104.724 19.149 105.279 19.3247 105.801 19.676C106.333 20.0273 106.713 20.4693 106.94 21.002L106.821 21.24L106.923 19.353H107.637V26H106.838V23.943L107.008 24.249C106.928 24.4757 106.792 24.7023 106.6 24.929C106.407 25.1443 106.169 25.3483 105.886 25.541C105.614 25.7223 105.308 25.8697 104.968 25.983C104.639 26.085 104.288 26.136 103.914 26.136ZM104.084 25.456C104.582 25.456 105.03 25.354 105.427 25.15C105.835 24.9347 106.163 24.64 106.413 24.266C106.662 23.892 106.804 23.4613 106.838 22.974V22.022C106.747 21.6027 106.566 21.2287 106.294 20.9C106.033 20.5713 105.71 20.3107 105.325 20.118C104.939 19.9253 104.52 19.829 104.067 19.829C103.568 19.829 103.109 19.948 102.69 20.186C102.27 20.4127 101.936 20.7357 101.687 21.155C101.437 21.5743 101.313 22.0673 101.313 22.634C101.313 23.1553 101.437 23.6313 101.687 24.062C101.936 24.4813 102.27 24.8213 102.69 25.082C103.12 25.3313 103.585 25.456 104.084 25.456ZM111.863 19.353L111.948 21.206L111.829 21.036C112.055 20.458 112.429 20.0047 112.951 19.676C113.483 19.336 114.061 19.166 114.685 19.166C115.059 19.166 115.393 19.2397 115.688 19.387C115.994 19.523 116.237 19.7157 116.419 19.965C116.611 20.203 116.725 20.4807 116.759 20.798L116.657 20.9C116.895 20.3333 117.269 19.9027 117.779 19.608C118.289 19.3133 118.838 19.166 119.428 19.166C120.062 19.166 120.567 19.353 120.941 19.727C121.315 20.0897 121.507 20.5657 121.519 21.155V26H120.72V21.325C120.708 20.9283 120.584 20.594 120.346 20.322C120.108 20.0387 119.745 19.8857 119.258 19.863C118.816 19.863 118.408 19.9763 118.034 20.203C117.66 20.4297 117.354 20.73 117.116 21.104C116.889 21.478 116.764 21.8973 116.742 22.362V26H115.943V21.325C115.931 20.9283 115.801 20.594 115.552 20.322C115.314 20.0387 114.951 19.8857 114.464 19.863C114.01 19.863 113.591 19.9763 113.206 20.203C112.832 20.4297 112.531 20.7413 112.305 21.138C112.078 21.5233 111.965 21.954 111.965 22.43V26H111.166V19.353H111.863ZM125.754 19.353L125.839 21.206L125.72 21.036C125.946 20.458 126.32 20.0047 126.842 19.676C127.374 19.336 127.952 19.166 128.576 19.166C128.95 19.166 129.284 19.2397 129.579 19.387C129.885 19.523 130.128 19.7157 130.31 19.965C130.502 20.203 130.616 20.4807 130.65 20.798L130.548 20.9C130.786 20.3333 131.16 19.9027 131.67 19.608C132.18 19.3133 132.729 19.166 133.319 19.166C133.953 19.166 134.458 19.353 134.832 19.727C135.206 20.0897 135.398 20.5657 135.41 21.155V26H134.611V21.325C134.599 20.9283 134.475 20.594 134.237 20.322C133.999 20.0387 133.636 19.8857 133.149 19.863C132.707 19.863 132.299 19.9763 131.925 20.203C131.551 20.4297 131.245 20.73 131.007 21.104C130.78 21.478 130.655 21.8973 130.633 22.362V26H129.834V21.325C129.822 20.9283 129.692 20.594 129.443 20.322C129.205 20.0387 128.842 19.8857 128.355 19.863C127.901 19.863 127.482 19.9763 127.097 20.203C126.723 20.4297 126.422 20.7413 126.196 21.138C125.969 21.5233 125.856 21.954 125.856 22.43V26H125.057V19.353H125.754ZM141.837 26.136C141.146 26.136 140.534 25.983 140.001 25.677C139.469 25.371 139.049 24.9573 138.743 24.436C138.449 23.9033 138.301 23.3083 138.301 22.651C138.301 22.005 138.46 21.4157 138.777 20.883C139.095 20.3503 139.52 19.9253 140.052 19.608C140.596 19.2907 141.197 19.132 141.854 19.132C142.648 19.132 143.311 19.3643 143.843 19.829C144.387 20.2937 144.778 20.9 145.016 21.648L139.202 23.892L138.964 23.314L144.285 21.24L144.115 21.478C143.923 21.0247 143.628 20.6337 143.231 20.305C142.846 19.9763 142.37 19.812 141.803 19.812C141.293 19.812 140.834 19.9367 140.426 20.186C140.018 20.4353 139.69 20.7697 139.44 21.189C139.202 21.6083 139.083 22.0843 139.083 22.617C139.083 23.1157 139.197 23.5803 139.423 24.011C139.661 24.4417 139.99 24.7873 140.409 25.048C140.829 25.3087 141.31 25.439 141.854 25.439C142.217 25.439 142.563 25.371 142.891 25.235C143.231 25.099 143.532 24.9233 143.792 24.708L144.2 25.286C143.883 25.5353 143.515 25.7393 143.095 25.898C142.687 26.0567 142.268 26.136 141.837 26.136ZM148.439 19.353L148.524 21.393L148.422 21.138C148.569 20.73 148.801 20.3787 149.119 20.084C149.436 19.7893 149.787 19.5627 150.173 19.404C150.569 19.2453 150.949 19.166 151.312 19.166L151.278 19.948C150.768 19.948 150.303 20.0613 149.884 20.288C149.476 20.5147 149.147 20.8207 148.898 21.206C148.66 21.58 148.541 22.005 148.541 22.481V26H147.742V19.353H148.439ZM155.626 26.136C155.241 26.136 154.839 26.068 154.419 25.932C154 25.7847 153.66 25.5523 153.399 25.235L153.773 24.708C154 24.946 154.266 25.1387 154.572 25.286C154.89 25.422 155.224 25.49 155.575 25.49C155.836 25.49 156.08 25.456 156.306 25.388C156.544 25.3087 156.737 25.1783 156.884 24.997C157.032 24.8157 157.105 24.572 157.105 24.266C157.105 23.9487 157.015 23.705 156.833 23.535C156.663 23.365 156.442 23.229 156.17 23.127C155.91 23.0137 155.632 22.9117 155.337 22.821C154.85 22.6623 154.448 22.447 154.13 22.175C153.824 21.903 153.671 21.5177 153.671 21.019C153.671 20.6563 153.756 20.339 153.926 20.067C154.108 19.795 154.351 19.5853 154.657 19.438C154.963 19.2793 155.309 19.2 155.694 19.2C156.046 19.2 156.391 19.2567 156.731 19.37C157.083 19.4833 157.4 19.676 157.683 19.948L157.326 20.509C157.145 20.2597 156.901 20.0897 156.595 19.999C156.301 19.9083 156.04 19.8573 155.813 19.846C155.621 19.846 155.417 19.8857 155.201 19.965C154.997 20.0443 154.822 20.1633 154.674 20.322C154.538 20.4693 154.47 20.6677 154.47 20.917C154.47 21.1777 154.544 21.393 154.691 21.563C154.839 21.7217 155.026 21.852 155.252 21.954C155.49 22.056 155.734 22.1523 155.983 22.243C156.312 22.345 156.618 22.4697 156.901 22.617C157.196 22.753 157.434 22.94 157.615 23.178C157.808 23.4047 157.904 23.7107 157.904 24.096C157.904 24.4813 157.819 24.8327 157.649 25.15C157.479 25.456 157.224 25.6997 156.884 25.881C156.556 26.051 156.136 26.136 155.626 26.136Z" fill="#E5BE2C"/>
<path d="M64.664 14.321L64.593 14.4722L64.5967 14.4739L64.664 14.321ZM65.973 15.46L65.8297 15.546L65.8321 15.5497L65.973 15.46ZM66.228 18.673L66.07 18.6189L66.0691 18.6215L66.228 18.673ZM65.548 19.812L65.4259 19.698L65.4239 19.7003L65.548 19.812ZM64.358 20.628L64.2935 20.4739L64.2922 20.4745L64.358 20.628ZM60.754 20.934V20.767H60.587V20.934H60.754ZM60.754 26V26.167H60.921V26H60.754ZM59.921 26H59.754V26.167H59.921V26ZM59.921 13.93V13.763H59.754V13.93H59.921ZM64.086 19.863L64.1571 20.0141L64.159 20.0132L64.086 19.863ZM65.004 19.149L64.8716 19.0472L64.871 19.0479L65.004 19.149ZM65.48 18.231L65.3209 18.1799L65.3194 18.1851L65.48 18.231ZM64.885 15.477L64.7668 15.5952L64.7726 15.6006L64.885 15.477ZM64.001 14.933L63.9407 15.0888L63.9451 15.0904L64.001 14.933ZM60.754 14.729V14.562H60.587V14.729H60.754ZM60.754 20.135H60.587V20.302H60.754V20.135ZM62.709 14.097C63.4377 14.097 64.0642 14.224 64.593 14.4722L64.735 14.1698C64.1531 13.8967 63.4763 13.763 62.709 13.763V14.097ZM64.5967 14.4739C65.1331 14.7099 65.5423 15.0668 65.8298 15.5459L66.1162 15.3741C65.7917 14.8332 65.3282 14.4308 64.7313 14.1681L64.5967 14.4739ZM65.8321 15.5497C66.1281 16.0149 66.282 16.6105 66.282 17.347H66.616C66.616 16.5648 66.4525 15.9024 66.1139 15.3703L65.8321 15.5497ZM66.282 17.347C66.282 17.7819 66.2114 18.2056 66.07 18.6189L66.386 18.7271C66.5393 18.2791 66.616 17.8188 66.616 17.347H66.282ZM66.0691 18.6215C65.9411 19.0163 65.7275 19.3749 65.4259 19.698L65.6701 19.926C66.0032 19.5691 66.2429 19.1684 66.3869 18.7245L66.0691 18.6215ZM65.4239 19.7003C65.1367 20.0193 64.7616 20.278 64.2935 20.4739L64.4225 20.7821C64.9291 20.57 65.3473 20.2847 65.6721 19.9237L65.4239 19.7003ZM64.2922 20.4745C63.8424 20.6673 63.2881 20.767 62.624 20.767V21.101C63.3199 21.101 63.9216 20.9967 64.4238 20.7815L64.2922 20.4745ZM62.624 20.767H60.754V21.101H62.624V20.767ZM60.587 20.934V26H60.921V20.934H60.587ZM60.754 25.833H59.921V26.167H60.754V25.833ZM60.088 26V13.93H59.754V26H60.088ZM59.921 14.097H62.709V13.763H59.921V14.097ZM62.624 20.302C63.2291 20.302 63.7427 20.2091 64.1571 20.0141L64.0149 19.7119C63.6586 19.8795 63.1976 19.968 62.624 19.968V20.302ZM64.159 20.0132C64.5737 19.8118 64.9024 19.5587 65.137 19.2501L64.871 19.0479C64.6749 19.306 64.3916 19.5289 64.013 19.7128L64.159 20.0132ZM65.1364 19.2508C65.3743 18.9416 65.5435 18.6169 65.6406 18.2769L65.3194 18.1851C65.2352 18.4798 65.087 18.7671 64.8716 19.0472L65.1364 19.2508ZM65.639 18.2821C65.7452 17.9518 65.8 17.6397 65.8 17.347H65.466C65.466 17.5983 65.4188 17.8755 65.321 18.1799L65.639 18.2821ZM65.8 17.347C65.8 16.9435 65.7347 16.5711 65.6015 16.2319L65.2905 16.3541C65.4066 16.6496 65.466 16.9799 65.466 17.347H65.8ZM65.6015 16.2319C65.4675 15.891 65.2659 15.5975 64.9974 15.3534L64.7726 15.6006C65.0028 15.8098 65.1751 16.0603 65.2905 16.3541L65.6015 16.2319ZM65.0031 15.3589C64.7457 15.1015 64.4291 14.9077 64.0569 14.7756L63.9451 15.0904C64.2756 15.2077 64.5483 15.3765 64.7669 15.5951L65.0031 15.3589ZM64.0613 14.7772C63.6873 14.6325 63.2639 14.562 62.794 14.562V14.896C63.2308 14.896 63.6121 14.9615 63.9407 15.0888L64.0613 14.7772ZM62.794 14.562H60.754V14.896H62.794V14.562ZM60.587 14.729V20.135H60.921V14.729H60.587ZM60.754 20.302H62.624V19.968H60.754V20.302ZM70.1331 19.353L70.3 19.346L70.2933 19.186H70.1331V19.353ZM70.2181 21.393L70.063 21.455L70.385 21.386L70.2181 21.393ZM70.1161 21.138L69.959 21.0813L69.9374 21.141L69.961 21.2L70.1161 21.138ZM70.8131 20.084L70.6994 19.9616L70.8131 20.084ZM71.8671 19.404L71.8051 19.2489L71.8035 19.2496L71.8671 19.404ZM73.0061 19.166L73.1729 19.1733L73.1805 18.999H73.0061V19.166ZM72.9721 19.948V20.115H73.132L73.139 19.9553L72.9721 19.948ZM71.5781 20.288L71.4987 20.1411L71.497 20.142L71.5781 20.288ZM70.5921 21.206L70.4519 21.1153L70.4512 21.1163L70.5921 21.206ZM70.2351 26V26.167H70.4021V26H70.2351ZM69.4361 26H69.2691V26.167H69.4361V26ZM69.4361 19.353V19.186H69.2691V19.353H69.4361ZM69.9662 19.36L70.0512 21.4L70.385 21.386L70.3 19.346L69.9662 19.36ZM70.3732 21.331L70.2712 21.076L69.961 21.2L70.063 21.455L70.3732 21.331ZM70.2732 21.1947C70.4115 20.8117 70.6289 20.4829 70.9267 20.2064L70.6994 19.9616C70.3626 20.2744 70.1154 20.6483 69.959 21.0813L70.2732 21.1947ZM70.9267 20.2064C71.23 19.9248 71.5645 19.7092 71.9307 19.5584L71.8035 19.2496C71.399 19.4161 71.0308 19.6539 70.6994 19.9616L70.9267 20.2064ZM71.9291 19.5591C72.3095 19.4069 72.6681 19.333 73.0061 19.333V18.999C72.6187 18.999 72.218 19.0837 71.8051 19.2489L71.9291 19.5591ZM72.8392 19.1587L72.8052 19.9407L73.139 19.9553L73.1729 19.1733L72.8392 19.1587ZM72.9721 19.781C72.4364 19.781 71.9441 19.9003 71.4987 20.1411L71.6575 20.4349C72.0507 20.2224 72.4878 20.115 72.9721 20.115V19.781ZM71.497 20.142C71.0655 20.3817 70.7163 20.7065 70.4519 21.1153L70.7323 21.2967C70.9665 20.9348 71.2747 20.6476 71.6592 20.434L71.497 20.142ZM70.4512 21.1163C70.1949 21.5191 70.0681 21.9757 70.0681 22.481H70.4021C70.4021 22.0343 70.5133 21.6409 70.733 21.2957L70.4512 21.1163ZM70.0681 22.481V26H70.4021V22.481H70.0681ZM70.2351 25.833H69.4361V26.167H70.2351V25.833ZM69.6031 26V19.353H69.2691V26H69.6031ZM69.4361 19.52H70.1331V19.186H69.4361V19.52ZM75.304 20.866L75.1605 20.7805L75.1592 20.7828L75.304 20.866ZM76.579 19.608L76.6622 19.7528L76.6632 19.7523L76.579 19.608ZM80.217 19.608L80.1315 19.7515L80.1338 19.7528L80.217 19.608ZM81.475 20.866L81.3302 20.9492L81.475 20.866ZM81.475 24.402L81.3302 24.3188L81.475 24.402ZM80.2 25.677L80.2832 25.8218L80.2842 25.8213L80.2 25.677ZM76.579 25.694L76.4958 25.8388L76.4982 25.8401L76.579 25.694ZM75.304 24.453L75.1591 24.5362L75.1613 24.5398L75.304 24.453ZM76.001 24.079L75.8548 24.1598L75.8574 24.1644L76.001 24.079ZM76.987 25.082L76.8999 25.2245L76.9016 25.2256L76.987 25.082ZM79.758 25.082L79.6726 24.9384L79.6709 24.9395L79.758 25.082ZM80.744 24.079L80.5995 23.9953L80.5988 23.9966L80.744 24.079ZM80.744 21.24L80.5978 21.3208L80.6004 21.3254L80.744 21.24ZM79.758 20.22L79.668 20.3608L79.6726 20.3636L79.758 20.22ZM76.97 20.237L77.0599 20.3778L77.0609 20.3771L76.97 20.237ZM76.001 21.274L75.8548 21.1932L76.001 21.274ZM75.012 22.634C75.012 22.0156 75.1581 21.4552 75.4488 20.9492L75.1592 20.7828C74.8379 21.3421 74.678 21.9604 74.678 22.634H75.012ZM75.4475 20.9515C75.7503 20.4432 76.1546 20.0444 76.6622 19.7528L76.4958 19.4632C75.938 19.7836 75.4924 20.2235 75.1605 20.7805L75.4475 20.9515ZM76.6632 19.7523C77.18 19.4508 77.757 19.299 78.398 19.299V18.965C77.7017 18.965 77.066 19.1306 76.4949 19.4637L76.6632 19.7523ZM78.398 19.299C79.0509 19.299 79.6272 19.451 80.1315 19.7515L80.3025 19.4645C79.7415 19.1303 79.1051 18.965 78.398 18.965V19.299ZM80.1338 19.7528C80.6408 20.0441 81.0389 20.4422 81.3302 20.9492L81.6198 20.7828C81.2991 20.2245 80.8585 19.7839 80.3002 19.4632L80.1338 19.7528ZM81.3302 20.9492C81.6209 21.4552 81.767 22.0156 81.767 22.634H82.101C82.101 21.9604 81.9411 21.3421 81.6198 20.7828L81.3302 20.9492ZM81.767 22.634C81.767 23.2524 81.6209 23.8128 81.3302 24.3188L81.6198 24.4852C81.9411 23.9259 82.101 23.3076 82.101 22.634H81.767ZM81.3302 24.3188C81.0391 24.8255 80.6353 25.2297 80.1159 25.5327L80.2842 25.8213C80.8527 25.4896 81.2989 25.0438 81.6198 24.4852L81.3302 24.3188ZM80.1168 25.5322C79.6117 25.8224 79.0401 25.969 78.398 25.969V26.303C79.0932 26.303 79.723 26.1436 80.2832 25.8218L80.1168 25.5322ZM78.398 25.969C77.7429 25.969 77.165 25.8273 76.6599 25.5479L76.4982 25.8401C77.0584 26.1501 77.6931 26.303 78.398 26.303V25.969ZM76.6622 25.5492C76.1538 25.2571 75.7493 24.8633 75.4467 24.3662L75.1613 24.5398C75.4934 25.0854 75.9389 25.5189 76.4958 25.8388L76.6622 25.5492ZM75.4488 24.3698C75.1589 23.8651 75.012 23.288 75.012 22.634H74.678C74.678 23.34 74.8371 23.9756 75.1592 24.5362L75.4488 24.3698ZM75.477 22.651C75.477 23.1989 75.6023 23.7029 75.8548 24.1598L76.1472 23.9982C75.9237 23.5938 75.811 23.1458 75.811 22.651H75.477ZM75.8574 24.1644C76.1204 24.6066 76.4682 24.9607 76.8999 25.2245L77.0741 24.9395C76.6898 24.7046 76.3803 24.3901 76.1446 23.9936L75.8574 24.1644ZM76.9016 25.2256C77.348 25.491 77.8424 25.623 78.381 25.623V25.289C77.8996 25.289 77.4647 25.1717 77.0724 24.9384L76.9016 25.2256ZM78.381 25.623C78.9196 25.623 79.4091 25.491 79.8451 25.2245L79.6709 24.9395C79.2909 25.1717 78.8624 25.289 78.381 25.289V25.623ZM79.8434 25.2256C80.2873 24.9616 80.6368 24.6063 80.8893 24.1614L80.5988 23.9966C80.3752 24.3904 80.0674 24.7037 79.6726 24.9384L79.8434 25.2256ZM80.8886 24.1627C81.1533 23.7054 81.285 23.2003 81.285 22.651H80.951C80.951 23.1444 80.8334 23.5913 80.5995 23.9953L80.8886 24.1627ZM81.285 22.651C81.285 22.1018 81.1533 21.6016 80.8876 21.1546L80.6004 21.3254C80.8334 21.7171 80.951 22.1576 80.951 22.651H81.285ZM80.8902 21.1592C80.638 20.7028 80.2884 20.3411 79.8434 20.0764L79.6726 20.3636C80.0663 20.5976 80.374 20.9158 80.5978 21.3208L80.8902 21.1592ZM79.8479 20.0793C79.4116 19.8005 78.9211 19.662 78.381 19.662V19.996C78.8609 19.996 79.2884 20.1182 79.6681 20.3607L79.8479 20.0793ZM78.381 19.662C77.8289 19.662 77.3267 19.8065 76.8791 20.0969L77.0609 20.3771C77.452 20.1235 77.8905 19.996 78.381 19.996V19.662ZM76.8801 20.0963C76.4482 20.3722 76.1061 20.7386 75.8548 21.1932L76.1472 21.3548C76.372 20.9481 76.6758 20.6232 77.0599 20.3777L76.8801 20.0963ZM75.8548 21.1932C75.6033 21.6484 75.477 22.1351 75.477 22.651H75.811C75.811 22.1922 75.9227 21.761 76.1472 21.3548L75.8548 21.1932ZM86.7034 29.111L86.7465 28.9495L86.7414 28.9483L86.7034 29.111ZM84.6804 27.887L84.5547 27.777L84.4484 27.8986L84.5663 28.009L84.6804 27.887ZM85.1564 27.343L85.2717 27.2221L85.1455 27.1018L85.0307 27.233L85.1564 27.343ZM86.5164 28.278L86.5792 28.1232L86.5755 28.1218L86.5164 28.278ZM89.3894 28.193L89.3115 28.0453L89.3083 28.047L89.3894 28.193ZM90.2734 27.309L90.124 27.2343L90.1231 27.2361L90.2734 27.309ZM90.5624 26.085L90.7294 26.0892L90.7295 26.0863L90.5624 26.085ZM90.5794 23.926L90.7026 23.8131L90.4158 23.5003L90.4124 23.9247L90.5794 23.926ZM90.7664 24.13L90.9223 24.19L90.9595 24.0934L90.8896 24.0171L90.7664 24.13ZM89.5424 25.575L89.4529 25.434L89.4517 25.4348L89.5424 25.575ZM85.8534 25.677L85.7652 25.8189L85.7689 25.821L85.8534 25.677ZM84.6294 24.419L84.4846 24.5022L84.4854 24.5035L84.6294 24.419ZM84.6464 20.832L84.5038 20.7452L84.6464 20.832ZM85.9384 19.608L86.018 19.7549L86.0203 19.7536L85.9384 19.608ZM89.4744 19.625L89.3903 19.7693L89.3916 19.77L89.4744 19.625ZM90.6814 20.883L90.8426 20.9269L90.8589 20.867L90.8321 20.8109L90.6814 20.883ZM90.5794 21.257L90.4126 21.2496L90.7406 21.3009L90.5794 21.257ZM90.6644 19.353V19.186H90.5047L90.4976 19.3456L90.6644 19.353ZM91.3784 19.353H91.5455V19.186H91.3784V19.353ZM91.0044 27.632L90.8564 27.5545L90.8544 27.5587L91.0044 27.632ZM89.8484 28.805L89.7676 28.6588L89.7663 28.6596L89.8484 28.805ZM85.3434 24.062L85.1989 24.1457L85.1999 24.1474L85.3434 24.062ZM86.3464 25.082L86.2582 25.2239L86.2628 25.2265L86.3464 25.082ZM89.1344 25.133L89.2124 25.2807L89.2156 25.279L89.1344 25.133ZM90.1374 24.232L90.2745 24.3275L90.1374 24.232ZM90.5794 23.025L90.7465 23.0382V23.025H90.5794ZM90.5794 22.039H90.7465V22.0216L90.7429 22.0046L90.5794 22.039ZM90.0354 20.9L89.9045 21.0038L89.9068 21.0065L90.0354 20.9ZM89.0494 20.118L88.9747 20.2674L88.9765 20.2682L89.0494 20.118ZM86.3464 20.186L86.2656 20.0398L86.264 20.0407L86.3464 20.186ZM85.3434 21.172L85.1999 21.0866L85.3434 21.172ZM87.7744 29.08C87.4141 29.08 87.0716 29.0363 86.7465 28.9496L86.6604 29.2724C87.0153 29.367 87.3868 29.414 87.7744 29.414V29.08ZM86.7414 28.9483C86.4209 28.8736 86.1034 28.7395 85.7885 28.5441L85.6124 28.8279C85.9548 29.0405 86.306 29.1898 86.6655 29.2737L86.7414 28.9483ZM85.7885 28.5441C85.4711 28.3471 85.1397 28.0879 84.7945 27.765L84.5663 28.009C84.9238 28.3434 85.2725 28.6169 85.6124 28.8279L85.7885 28.5441ZM84.8061 27.997L85.2821 27.453L85.0307 27.233L84.5547 27.777L84.8061 27.997ZM85.0412 27.4639C85.5373 27.937 86.0093 28.2647 86.4573 28.4342L86.5755 28.1218C86.1849 27.974 85.7502 27.6784 85.2717 27.2221L85.0412 27.4639ZM86.4537 28.4328C86.8902 28.6097 87.3195 28.7 87.7404 28.7V28.366C87.3681 28.366 86.9814 28.2863 86.5792 28.1232L86.4537 28.4328ZM87.7404 28.7C88.4475 28.7 89.0286 28.5845 89.4706 28.339L89.3083 28.047C88.9343 28.2548 88.4161 28.366 87.7404 28.366V28.7ZM89.4674 28.3407C89.9032 28.1107 90.2252 27.7914 90.4237 27.3819L90.1231 27.2361C89.959 27.5746 89.6916 27.8446 89.3115 28.0453L89.4674 28.3407ZM90.4228 27.3837C90.6164 26.9966 90.7175 26.5641 90.7294 26.0892L90.3955 26.0808C90.3847 26.5126 90.2932 26.896 90.1241 27.2343L90.4228 27.3837ZM90.7295 26.0863L90.7465 23.9273L90.4124 23.9247L90.3954 26.0837L90.7295 26.0863ZM90.4563 24.0389L90.6433 24.2429L90.8896 24.0171L90.7026 23.8131L90.4563 24.0389ZM90.6105 24.07C90.3981 24.6224 90.0154 25.077 89.4529 25.434L89.6319 25.716C90.2482 25.325 90.6814 24.8163 90.9223 24.19L90.6105 24.07ZM89.4517 25.4348C88.9026 25.79 88.2773 25.969 87.5704 25.969V26.303C88.3369 26.303 89.0262 26.108 89.6332 25.7152L89.4517 25.4348ZM87.5704 25.969C86.9759 25.969 86.4329 25.8234 85.938 25.533L85.7689 25.821C86.3167 26.1426 86.9184 26.303 87.5704 26.303V25.969ZM85.9417 25.5352C85.4548 25.2322 85.0659 24.8326 84.7735 24.3345L84.4854 24.5035C84.805 25.048 85.2321 25.4871 85.7652 25.8188L85.9417 25.5352ZM84.7743 24.3358C84.4836 23.8298 84.3375 23.2694 84.3375 22.651H84.0034C84.0034 23.3246 84.1633 23.9429 84.4846 24.5022L84.7743 24.3358ZM84.3375 22.651C84.3375 21.9861 84.4897 21.4107 84.7891 20.9188L84.5038 20.7452C84.1685 21.296 84.0034 21.9332 84.0034 22.651H84.3375ZM84.7891 20.9188C85.0909 20.4231 85.4996 20.0357 86.018 19.7549L85.8589 19.4611C85.2893 19.7697 84.8367 20.1982 84.5038 20.7452L84.7891 20.9188ZM86.0203 19.7536C86.538 19.4624 87.1102 19.316 87.7404 19.316V18.982C87.056 18.982 86.4269 19.1416 85.8566 19.4624L86.0203 19.7536ZM87.7404 19.316C88.322 19.316 88.871 19.4664 89.3903 19.7693L89.5586 19.4807C88.9898 19.1489 88.3829 18.982 87.7404 18.982V19.316ZM89.3916 19.77C89.9207 20.0724 90.2976 20.4676 90.5308 20.9551L90.8321 20.8109C90.5666 20.2557 90.1388 19.8123 89.5573 19.48L89.3916 19.77ZM90.5203 20.8391L90.4183 21.2131L90.7406 21.3009L90.8426 20.9269L90.5203 20.8391ZM90.7463 21.2644L90.8313 19.3604L90.4976 19.3456L90.4126 21.2496L90.7463 21.2644ZM90.6644 19.52H91.3784V19.186H90.6644V19.52ZM91.2114 19.353V26.102H91.5455V19.353H91.2114ZM91.2114 26.102C91.2114 26.6194 91.0931 27.1027 90.8565 27.5545L91.1524 27.7095C91.4144 27.2093 91.5455 26.6726 91.5455 26.102H91.2114ZM90.8544 27.5587C90.6332 28.0115 90.2741 28.3787 89.7676 28.6589L89.9293 28.9511C90.4881 28.642 90.8997 28.2272 91.1545 27.7053L90.8544 27.5587ZM89.7663 28.6596C89.2786 28.9352 88.6188 29.08 87.7744 29.08V29.414C88.6527 29.414 89.3756 29.2641 89.9306 28.9504L89.7663 28.6596ZM84.8024 22.634C84.8024 23.1833 84.9341 23.6884 85.1989 24.1457L85.488 23.9783C85.2541 23.5743 85.1365 23.1274 85.1365 22.634H84.8024ZM85.1999 24.1474C85.4631 24.59 85.8165 24.9492 86.2583 25.2238L86.4346 24.9402C86.0377 24.6934 85.7225 24.3727 85.487 23.9766L85.1999 24.1474ZM86.2628 25.2265C86.7201 25.4913 87.2252 25.623 87.7744 25.623V25.289C87.281 25.289 86.8341 25.1714 86.4301 24.9375L86.2628 25.2265ZM87.7744 25.623C88.298 25.623 88.7785 25.5097 89.2124 25.2807L89.0565 24.9853C88.6744 25.1869 88.2482 25.289 87.7744 25.289V25.623ZM89.2156 25.279C89.6452 25.0403 89.9989 24.7229 90.2745 24.3275L90.0004 24.1365C89.7547 24.4891 89.4396 24.7724 89.0533 24.987L89.2156 25.279ZM90.2745 24.3275C90.5511 23.9306 90.7095 23.5001 90.7459 23.0381L90.4129 23.0119C90.3814 23.4113 90.2451 23.7854 90.0004 24.1365L90.2745 24.3275ZM90.7465 23.025V22.039H90.4124V23.025H90.7465ZM90.7429 22.0046C90.6468 21.5483 90.4539 21.1437 90.1641 20.7935L89.9068 21.0065C90.1609 21.3136 90.3307 21.6684 90.416 22.0734L90.7429 22.0046ZM90.1663 20.7962C89.8893 20.4469 89.5404 20.1708 89.1224 19.9678L88.9765 20.2682C89.3518 20.4505 89.6603 20.6958 89.9046 21.0038L90.1663 20.7962ZM89.1241 19.9686C88.7138 19.7635 88.263 19.662 87.7744 19.662V19.996C88.2153 19.996 88.6144 20.0872 88.9747 20.2674L89.1241 19.9686ZM87.7744 19.662C87.2266 19.662 86.7225 19.7873 86.2657 20.0398L86.4272 20.3322C86.8317 20.1087 87.2796 19.996 87.7744 19.996V19.662ZM86.264 20.0407C85.8191 20.2932 85.4639 20.6427 85.1999 21.0866L85.487 21.2574C85.7217 20.8627 86.0351 20.5548 86.4289 20.3313L86.264 20.0407ZM85.1999 21.0866C84.9332 21.5352 84.8024 22.0529 84.8024 22.634H85.1365C85.1365 22.1045 85.2551 21.6475 85.487 21.2574L85.1999 21.0866ZM95.6191 19.353L95.786 19.346L95.7794 19.186H95.6191V19.353ZM95.7041 21.393L95.5491 21.455L95.871 21.386L95.7041 21.393ZM95.6021 21.138L95.445 21.0813L95.4235 21.141L95.4471 21.2L95.6021 21.138ZM96.2991 20.084L96.1855 19.9616L96.2991 20.084ZM97.3531 19.404L97.2911 19.2489L97.2895 19.2496L97.3531 19.404ZM98.4921 19.166L98.659 19.1733L98.6666 18.999H98.4921V19.166ZM98.4581 19.948V20.115H98.6181L98.625 19.9553L98.4581 19.948ZM97.0641 20.288L96.9847 20.1411L96.983 20.142L97.0641 20.288ZM96.0781 21.206L95.9379 21.1153L95.9372 21.1163L96.0781 21.206ZM95.7211 26V26.167H95.8882V26H95.7211ZM94.9221 26H94.7551V26.167H94.9221V26ZM94.9221 19.353V19.186H94.7551V19.353H94.9221ZM95.4523 19.36L95.5373 21.4L95.871 21.386L95.786 19.346L95.4523 19.36ZM95.8592 21.331L95.7572 21.076L95.4471 21.2L95.5491 21.455L95.8592 21.331ZM95.7592 21.1947C95.8975 20.8117 96.115 20.4829 96.4128 20.2064L96.1855 19.9616C95.8486 20.2744 95.6014 20.6483 95.445 21.0813L95.7592 21.1947ZM96.4128 20.2064C96.7161 19.9248 97.0506 19.7092 97.4167 19.5584L97.2895 19.2496C96.885 19.4161 96.5169 19.6539 96.1855 19.9616L96.4128 20.2064ZM97.4152 19.5591C97.7956 19.4069 98.1541 19.333 98.4921 19.333V18.999C98.1048 18.999 97.7041 19.0837 97.2911 19.2489L97.4152 19.5591ZM98.3253 19.1587L98.2913 19.9407L98.625 19.9553L98.659 19.1733L98.3253 19.1587ZM98.4581 19.781C97.9224 19.781 97.4301 19.9003 96.9847 20.1411L97.1436 20.4349C97.5368 20.2224 97.9739 20.115 98.4581 20.115V19.781ZM96.983 20.142C96.5515 20.3817 96.2024 20.7065 95.9379 21.1153L96.2184 21.2967C96.4526 20.9348 96.7608 20.6476 97.1453 20.434L96.983 20.142ZM95.9372 21.1163C95.6809 21.5191 95.5541 21.9757 95.5541 22.481H95.8882C95.8882 22.0343 95.9994 21.6409 96.2191 21.2957L95.9372 21.1163ZM95.5541 22.481V26H95.8882V22.481H95.5541ZM95.7211 25.833H94.9221V26.167H95.7211V25.833ZM95.0892 26V19.353H94.7551V26H95.0892ZM94.9221 19.52H95.6191V19.186H94.9221V19.52ZM102.18 25.711L102.096 25.8557L102.1 25.8577L102.18 25.711ZM100.956 24.487L100.81 24.5692L100.812 24.5715L100.956 24.487ZM100.99 20.781L101.132 20.8678L101.133 20.8665L100.99 20.781ZM102.282 19.574L102.356 19.7234L102.359 19.7221L102.282 19.574ZM105.801 19.676L105.707 19.8145L105.709 19.8154L105.801 19.676ZM106.94 21.002L107.089 21.0767L107.124 21.0076L107.093 20.9366L106.94 21.002ZM106.821 21.24L106.654 21.231L106.97 21.3147L106.821 21.24ZM106.923 19.353V19.186H106.764L106.756 19.344L106.923 19.353ZM107.637 19.353H107.804V19.186H107.637V19.353ZM107.637 26V26.167H107.804V26H107.637ZM106.838 26H106.671V26.167H106.838V26ZM106.838 23.943L106.984 23.8619L106.671 23.2984V23.943H106.838ZM107.008 24.249L107.165 24.3042L107.19 24.2334L107.154 24.1679L107.008 24.249ZM106.6 24.929L106.724 25.0404L106.727 25.0372L106.6 24.929ZM105.886 25.541L105.978 25.68L105.98 25.6791L105.886 25.541ZM104.968 25.983L105.017 26.1426L105.02 26.1414L104.968 25.983ZM105.427 25.15L105.503 25.2985L105.505 25.2977L105.427 25.15ZM106.413 24.266L106.552 24.3586L106.413 24.266ZM106.838 22.974L107.005 22.9857V22.974H106.838ZM106.838 22.022H107.005V22.0041L107.001 21.9867L106.838 22.022ZM106.294 20.9L106.163 21.0038L106.165 21.0065L106.294 20.9ZM102.69 20.186L102.769 20.333L102.772 20.3313L102.69 20.186ZM101.687 21.155L101.543 21.0696L101.687 21.155ZM101.687 24.062L101.542 24.1457L101.543 24.1474L101.687 24.062ZM102.69 25.082L102.601 25.2239L102.606 25.2265L102.69 25.082ZM103.914 25.969C103.305 25.969 102.755 25.8334 102.259 25.5643L102.1 25.8577C102.647 26.1553 103.253 26.303 103.914 26.303V25.969ZM102.263 25.5664C101.779 25.2866 101.391 24.8996 101.1 24.4025L100.812 24.5715C101.132 25.1171 101.56 25.5461 102.096 25.8556L102.263 25.5664ZM101.101 24.4048C100.823 23.9122 100.681 23.335 100.681 22.668H100.347C100.347 23.3836 100.499 24.0191 100.81 24.5692L101.101 24.4048ZM100.681 22.668C100.681 21.9556 100.834 21.3581 101.132 20.8678L100.847 20.6942C100.511 21.2466 100.347 21.9071 100.347 22.668H100.681ZM101.133 20.8665C101.434 20.3607 101.842 19.9808 102.356 19.7234L102.207 19.4246C101.634 19.7112 101.18 20.136 100.846 20.6955L101.133 20.8665ZM102.359 19.7221C102.876 19.4527 103.467 19.316 104.135 19.316V18.982C103.42 18.982 102.775 19.1286 102.205 19.4259L102.359 19.7221ZM104.135 19.316C104.688 19.316 105.212 19.4805 105.707 19.8145L105.894 19.5375C105.347 19.1689 104.76 18.982 104.135 18.982V19.316ZM105.709 19.8154C106.217 20.1506 106.573 20.568 106.786 21.0674L107.093 20.9366C106.853 20.3707 106.45 19.9041 105.893 19.5366L105.709 19.8154ZM106.79 20.9273L106.671 21.1653L106.97 21.3147L107.089 21.0767L106.79 20.9273ZM106.987 21.249L107.089 19.362L106.756 19.344L106.654 21.231L106.987 21.249ZM106.923 19.52H107.637V19.186H106.923V19.52ZM107.47 19.353V26H107.804V19.353H107.47ZM107.637 25.833H106.838V26.167H107.637V25.833ZM107.005 26V23.943H106.671V26H107.005ZM106.692 24.0241L106.862 24.3301L107.154 24.1679L106.984 23.8619L106.692 24.0241ZM106.85 24.1938C106.779 24.3971 106.655 24.6062 106.472 24.8208L106.727 25.0372C106.93 24.7985 107.078 24.5542 107.165 24.3042L106.85 24.1938ZM106.475 24.8176C106.293 25.0212 106.066 25.2165 105.792 25.4029L105.98 25.6791C106.272 25.4802 106.521 25.2675 106.724 25.0404L106.475 24.8176ZM105.793 25.402C105.535 25.5744 105.242 25.7155 104.915 25.8245L105.02 26.1414C105.373 26.0239 105.693 25.8703 105.978 25.68L105.793 25.402ZM104.918 25.8235C104.607 25.9201 104.272 25.969 103.914 25.969V26.303C104.303 26.303 104.671 26.2499 105.017 26.1425L104.918 25.8235ZM104.084 25.623C104.606 25.623 105.08 25.5161 105.503 25.2985L105.35 25.0015C104.98 25.1919 104.559 25.289 104.084 25.289V25.623ZM105.505 25.2977C105.937 25.0697 106.286 24.7564 106.552 24.3586L106.274 24.1734C106.04 24.5236 105.733 24.7996 105.349 25.0023L105.505 25.2977ZM106.552 24.3586C106.818 23.9584 106.968 23.4993 107.004 22.9856L106.671 22.9624C106.639 23.4233 106.506 23.8256 106.274 24.1734L106.552 24.3586ZM107.005 22.974V22.022H106.671V22.974H107.005ZM107.001 21.9867C106.905 21.5414 106.712 21.1429 106.422 20.7935L106.165 21.0065C106.42 21.3144 106.589 21.664 106.674 22.0573L107.001 21.9867ZM106.425 20.7962C106.148 20.4479 105.806 20.1719 105.399 19.9686L105.25 20.2674C105.614 20.4494 105.918 20.6948 106.163 21.0038L106.425 20.7962ZM105.399 19.9686C104.99 19.7637 104.545 19.662 104.067 19.662V19.996C104.495 19.996 104.889 20.0869 105.25 20.2674L105.399 19.9686ZM104.067 19.662C103.54 19.662 103.053 19.788 102.607 20.0407L102.772 20.3313C103.165 20.108 103.596 19.996 104.067 19.996V19.662ZM102.61 20.0391C102.164 20.2804 101.807 20.625 101.543 21.0696L101.83 21.2404C102.065 20.8463 102.377 20.5449 102.769 20.3329L102.61 20.0391ZM101.543 21.0696C101.276 21.5187 101.146 22.0422 101.146 22.634H101.48C101.48 22.0925 101.599 21.6299 101.83 21.2404L101.543 21.0696ZM101.146 22.634C101.146 23.1833 101.277 23.6884 101.542 24.1457L101.831 23.9783C101.597 23.5743 101.48 23.1274 101.48 22.634H101.146ZM101.543 24.1474C101.806 24.59 102.16 24.9492 102.602 25.2238L102.778 24.9402C102.381 24.6934 102.066 24.3727 101.83 23.9766L101.543 24.1474ZM102.606 25.2265C103.062 25.4906 103.556 25.623 104.084 25.623V25.289C103.614 25.289 103.179 25.172 102.773 24.9375L102.606 25.2265ZM111.863 19.353L112.03 19.3453L112.022 19.186H111.863V19.353ZM111.948 21.206L111.811 21.3018L112.141 21.7733L112.115 21.1983L111.948 21.206ZM111.829 21.036L111.673 20.975L111.641 21.0584L111.692 21.1318L111.829 21.036ZM112.951 19.676L113.04 19.8173L113.041 19.8168L112.951 19.676ZM115.688 19.387L115.613 19.5365L115.62 19.5396L115.688 19.387ZM116.419 19.965L116.284 20.0634L116.289 20.0701L116.419 19.965ZM116.759 20.798L116.877 20.9161L116.933 20.8596L116.925 20.7802L116.759 20.798ZM116.657 20.9L116.503 20.8353L116.775 21.0181L116.657 20.9ZM117.779 19.608L117.695 19.4634L117.779 19.608ZM120.941 19.727L120.823 19.8451L120.825 19.8469L120.941 19.727ZM121.519 21.155H121.686L121.686 21.1518L121.519 21.155ZM121.519 26V26.167H121.686V26H121.519ZM120.72 26H120.553V26.167H120.72V26ZM120.72 21.325H120.887L120.887 21.3202L120.72 21.325ZM120.346 20.322L120.218 20.4294L120.22 20.432L120.346 20.322ZM119.258 19.863L119.266 19.696H119.258V19.863ZM118.034 20.203L118.12 20.3458L118.034 20.203ZM117.116 21.104L116.975 21.0143L116.973 21.0174L117.116 21.104ZM116.742 22.362L116.575 22.3539V22.362H116.742ZM116.742 26V26.167H116.909V26H116.742ZM115.943 26H115.776V26.167H115.943V26ZM115.943 21.325H116.11L116.11 21.3202L115.943 21.325ZM115.552 20.322L115.424 20.4295L115.429 20.4349L115.552 20.322ZM114.464 19.863L114.472 19.696H114.464V19.863ZM113.206 20.203L113.121 20.059L113.119 20.0602L113.206 20.203ZM112.305 21.138L112.449 21.2227L112.45 21.2209L112.305 21.138ZM111.965 26V26.167H112.132V26H111.965ZM111.166 26H110.999V26.167H111.166V26ZM111.166 19.353V19.186H110.999V19.353H111.166ZM111.696 19.3607L111.781 21.2137L112.115 21.1983L112.03 19.3453L111.696 19.3607ZM112.085 21.1102L111.966 20.9402L111.692 21.1318L111.811 21.3018L112.085 21.1102ZM111.984 21.097C112.198 20.5519 112.549 20.1268 113.04 19.8173L112.862 19.5347C112.31 19.8825 111.913 20.3641 111.673 20.975L111.984 21.097ZM113.041 19.8168C113.547 19.4937 114.094 19.333 114.685 19.333V18.999C114.029 18.999 113.42 19.1783 112.861 19.5352L113.041 19.8168ZM114.685 19.333C115.036 19.333 115.345 19.4021 115.613 19.5364L115.762 19.2376C115.442 19.0772 115.081 18.999 114.685 18.999V19.333ZM115.62 19.5396C115.902 19.6648 116.121 19.8396 116.284 20.0632L116.554 19.8668C116.354 19.5917 116.086 19.3812 115.756 19.2344L115.62 19.5396ZM116.289 20.0701C116.461 20.282 116.562 20.529 116.593 20.8158L116.925 20.7802C116.888 20.4323 116.762 20.124 116.549 19.8599L116.289 20.0701ZM116.641 20.6799L116.539 20.7819L116.775 21.0181L116.877 20.9161L116.641 20.6799ZM116.811 20.9647C117.035 20.4301 117.385 20.0282 117.862 19.7526L117.695 19.4634C117.152 19.7771 116.754 20.2366 116.503 20.8353L116.811 20.9647ZM117.862 19.7526C118.347 19.4726 118.868 19.333 119.428 19.333V18.999C118.809 18.999 118.231 19.154 117.695 19.4634L117.862 19.7526ZM119.428 19.333C120.028 19.333 120.486 19.5085 120.823 19.8451L121.059 19.6089C120.647 19.1975 120.097 18.999 119.428 18.999V19.333ZM120.825 19.8469C121.163 20.1748 121.341 20.6066 121.352 21.1582L121.686 21.1518C121.674 20.5247 121.467 20.0046 121.057 19.6071L120.825 19.8469ZM121.352 21.155V26H121.686V21.155H121.352ZM121.519 25.833H120.72V26.167H121.519V25.833ZM120.887 26V21.325H120.553V26H120.887ZM120.887 21.3202C120.874 20.8888 120.738 20.5161 120.471 20.212L120.22 20.432C120.43 20.6719 120.542 20.9678 120.553 21.3298L120.887 21.3202ZM120.474 20.2146C120.197 19.8851 119.784 19.7203 119.266 19.6962L119.25 20.0298C119.706 20.0511 120.019 20.1922 120.218 20.4294L120.474 20.2146ZM119.258 19.696C118.786 19.696 118.348 19.8175 117.947 20.0602L118.12 20.3458C118.468 20.1352 118.846 20.03 119.258 20.03V19.696ZM117.947 20.0602C117.551 20.3003 117.226 20.619 116.975 21.0143L117.257 21.1937C117.481 20.841 117.769 20.559 118.12 20.3458L117.947 20.0602ZM116.973 21.0174C116.731 21.4167 116.599 21.8633 116.575 22.3539L116.909 22.3701C116.93 21.9314 117.047 21.5393 117.259 21.1906L116.973 21.0174ZM116.575 22.362V26H116.909V22.362H116.575ZM116.742 25.833H115.943V26.167H116.742V25.833ZM116.11 26V21.325H115.776V26H116.11ZM116.11 21.3202C116.097 20.8867 115.953 20.5131 115.675 20.2091L115.429 20.4349C115.649 20.6749 115.766 20.97 115.776 21.3298L116.11 21.3202ZM115.68 20.2146C115.403 19.8851 114.99 19.7203 114.472 19.6962L114.456 20.0298C114.912 20.0511 115.225 20.1922 115.424 20.4294L115.68 20.2146ZM114.464 19.696C113.981 19.696 113.532 19.8171 113.121 20.059L113.29 20.347C113.65 20.1356 114.04 20.03 114.464 20.03V19.696ZM113.119 20.0602C112.72 20.3022 112.4 20.635 112.16 21.0551L112.45 21.2209C112.663 20.8477 112.944 20.5571 113.292 20.3458L113.119 20.0602ZM112.161 21.0533C111.918 21.466 111.798 21.9262 111.798 22.43H112.132C112.132 21.9818 112.238 21.5807 112.449 21.2227L112.161 21.0533ZM111.798 22.43V26H112.132V22.43H111.798ZM111.965 25.833H111.166V26.167H111.965V25.833ZM111.333 26V19.353H110.999V26H111.333ZM111.166 19.52H111.863V19.186H111.166V19.52ZM125.754 19.353L125.92 19.3453L125.913 19.186H125.754V19.353ZM125.839 21.206L125.702 21.3018L126.032 21.7733L126.005 21.1983L125.839 21.206ZM125.72 21.036L125.564 20.975L125.531 21.0584L125.583 21.1318L125.72 21.036ZM126.842 19.676L126.931 19.8173L126.931 19.8168L126.842 19.676ZM129.579 19.387L129.504 19.5365L129.511 19.5396L129.579 19.387ZM130.31 19.965L130.174 20.0634L130.18 20.0701L130.31 19.965ZM130.65 20.798L130.768 20.9161L130.824 20.8596L130.816 20.7802L130.65 20.798ZM130.548 20.9L130.394 20.8353L130.666 21.0181L130.548 20.9ZM131.67 19.608L131.586 19.4634L131.67 19.608ZM134.832 19.727L134.714 19.8451L134.715 19.8469L134.832 19.727ZM135.41 21.155H135.577L135.577 21.1518L135.41 21.155ZM135.41 26V26.167H135.577V26H135.41ZM134.611 26H134.444V26.167H134.611V26ZM134.611 21.325H134.778L134.778 21.3202L134.611 21.325ZM134.237 20.322L134.109 20.4294L134.111 20.432L134.237 20.322ZM133.149 19.863L133.156 19.696H133.149V19.863ZM131.925 20.203L132.011 20.3458L131.925 20.203ZM131.007 21.104L130.866 21.0143L130.864 21.0174L131.007 21.104ZM130.633 22.362L130.466 22.3539V22.362H130.633ZM130.633 26V26.167H130.8V26H130.633ZM129.834 26H129.667V26.167H129.834V26ZM129.834 21.325H130.001L130.001 21.3202L129.834 21.325ZM129.443 20.322L129.315 20.4295L129.32 20.4349L129.443 20.322ZM128.355 19.863L128.362 19.696H128.355V19.863ZM127.097 20.203L127.012 20.059L127.01 20.0602L127.097 20.203ZM126.196 21.138L126.34 21.2227L126.341 21.2209L126.196 21.138ZM125.856 26V26.167H126.023V26H125.856ZM125.057 26H124.89V26.167H125.057V26ZM125.057 19.353V19.186H124.89V19.353H125.057ZM125.587 19.3607L125.672 21.2137L126.005 21.1983L125.92 19.3453L125.587 19.3607ZM125.975 21.1102L125.856 20.9402L125.583 21.1318L125.702 21.3018L125.975 21.1102ZM125.875 21.097C126.089 20.5519 126.44 20.1268 126.931 19.8173L126.753 19.5347C126.201 19.8825 125.804 20.3641 125.564 20.975L125.875 21.097ZM126.931 19.8168C127.438 19.4937 127.985 19.333 128.576 19.333V18.999C127.92 18.999 127.311 19.1783 126.752 19.5352L126.931 19.8168ZM128.576 19.333C128.927 19.333 129.235 19.4021 129.504 19.5364L129.653 19.2376C129.333 19.0772 128.972 18.999 128.576 18.999V19.333ZM129.511 19.5396C129.792 19.6648 130.012 19.8396 130.175 20.0632L130.445 19.8668C130.245 19.5917 129.977 19.3812 129.646 19.2344L129.511 19.5396ZM130.18 20.0701C130.351 20.282 130.453 20.529 130.484 20.8158L130.816 20.7802C130.778 20.4323 130.653 20.124 130.439 19.8599L130.18 20.0701ZM130.532 20.6799L130.43 20.7819L130.666 21.0181L130.768 20.9161L130.532 20.6799ZM130.702 20.9647C130.926 20.4301 131.276 20.0282 131.753 19.7526L131.586 19.4634C131.043 19.7771 130.645 20.2366 130.394 20.8353L130.702 20.9647ZM131.753 19.7526C132.238 19.4726 132.759 19.333 133.319 19.333V18.999C132.7 18.999 132.121 19.154 131.586 19.4634L131.753 19.7526ZM133.319 19.333C133.918 19.333 134.377 19.5085 134.714 19.8451L134.95 19.6089C134.538 19.1975 133.988 18.999 133.319 18.999V19.333ZM134.715 19.8469C135.053 20.1748 135.232 20.6066 135.243 21.1582L135.577 21.1518C135.565 20.5247 135.358 20.0046 134.948 19.6071L134.715 19.8469ZM135.243 21.155V26H135.577V21.155H135.243ZM135.41 25.833H134.611V26.167H135.41V25.833ZM134.778 26V21.325H134.444V26H134.778ZM134.778 21.3202C134.765 20.8888 134.628 20.5161 134.362 20.212L134.111 20.432C134.321 20.6719 134.433 20.9678 134.444 21.3298L134.778 21.3202ZM134.365 20.2146C134.088 19.8851 133.675 19.7203 133.156 19.6962L133.141 20.0298C133.597 20.0511 133.909 20.1922 134.109 20.4294L134.365 20.2146ZM133.149 19.696C132.676 19.696 132.238 19.8175 131.838 20.0602L132.011 20.3458C132.359 20.1352 132.737 20.03 133.149 20.03V19.696ZM131.838 20.0602C131.442 20.3003 131.117 20.619 130.866 21.0143L131.148 21.1937C131.372 20.841 131.659 20.559 132.011 20.3458L131.838 20.0602ZM130.864 21.0174C130.622 21.4167 130.49 21.8633 130.466 22.3539L130.799 22.3701C130.821 21.9314 130.938 21.5393 131.149 21.1906L130.864 21.0174ZM130.466 22.362V26H130.8V22.362H130.466ZM130.633 25.833H129.834V26.167H130.633V25.833ZM130.001 26V21.325H129.667V26H130.001ZM130.001 21.3202C129.988 20.8867 129.844 20.5131 129.566 20.2091L129.32 20.4349C129.54 20.6749 129.656 20.97 129.667 21.3298L130.001 21.3202ZM129.571 20.2146C129.294 19.8851 128.881 19.7203 128.362 19.6962L128.347 20.0298C128.803 20.0511 129.115 20.1922 129.315 20.4294L129.571 20.2146ZM128.355 19.696C127.872 19.696 127.423 19.8171 127.012 20.059L127.181 20.347C127.541 20.1356 127.931 20.03 128.355 20.03V19.696ZM127.01 20.0602C126.611 20.3022 126.291 20.635 126.051 21.0551L126.341 21.2209C126.554 20.8477 126.835 20.5571 127.183 20.3458L127.01 20.0602ZM126.052 21.0533C125.809 21.466 125.689 21.9262 125.689 22.43H126.023C126.023 21.9818 126.129 21.5807 126.34 21.2227L126.052 21.0533ZM125.689 22.43V26H126.023V22.43H125.689ZM125.856 25.833H125.057V26.167H125.856V25.833ZM125.224 26V19.353H124.89V26H125.224ZM125.057 19.52H125.754V19.186H125.057V19.52ZM140.001 25.677L139.918 25.8218L140.001 25.677ZM138.743 24.436L138.597 24.5169L138.599 24.5205L138.743 24.436ZM138.777 20.883L138.634 20.7975L138.777 20.883ZM140.052 19.608L139.968 19.4637L139.967 19.4645L140.052 19.608ZM143.843 19.829L143.734 19.9549L143.735 19.956L143.843 19.829ZM145.016 21.648L145.077 21.8038L145.223 21.7472L145.176 21.5974L145.016 21.648ZM139.202 23.892L139.048 23.9556L139.11 24.1066L139.263 24.0478L139.202 23.892ZM138.964 23.314L138.904 23.1584L138.745 23.2202L138.81 23.3776L138.964 23.314ZM144.285 21.24L144.421 21.3371L144.747 20.8807L144.225 21.0844L144.285 21.24ZM144.115 21.478L143.962 21.5433L144.078 21.8175L144.251 21.5751L144.115 21.478ZM143.231 20.305L143.123 20.4321L143.125 20.4336L143.231 20.305ZM140.426 20.186L140.514 20.3285L140.426 20.186ZM139.44 21.189L139.297 21.1036L139.295 21.1066L139.44 21.189ZM139.423 24.011L139.276 24.0888L139.277 24.0918L139.423 24.011ZM140.409 25.048L140.321 25.1898L140.409 25.048ZM142.891 25.235L142.829 25.0799L142.828 25.0807L142.891 25.235ZM143.792 24.708L143.929 24.6117L143.825 24.4645L143.686 24.5792L143.792 24.708ZM144.2 25.286L144.304 25.4173L144.428 25.3193L144.337 25.1897L144.2 25.286ZM143.095 25.898L143.036 25.7418L143.035 25.7423L143.095 25.898ZM141.837 25.969C141.172 25.969 140.589 25.8219 140.085 25.5322L139.918 25.8218C140.479 26.1441 141.121 26.303 141.837 26.303V25.969ZM140.085 25.5322C139.577 25.2404 139.179 24.8473 138.888 24.3515L138.599 24.5205C138.92 25.0673 139.361 25.5016 139.918 25.8218L140.085 25.5322ZM138.89 24.3552C138.61 23.8492 138.469 23.2824 138.469 22.651H138.134C138.134 23.3343 138.288 23.9575 138.597 24.5168L138.89 24.3552ZM138.469 22.651C138.469 22.0338 138.62 21.4742 138.921 20.9685L138.634 20.7975C138.301 21.3571 138.134 21.9762 138.134 22.651H138.469ZM138.921 20.9685C139.224 20.4597 139.629 20.0546 140.138 19.7515L139.967 19.4645C139.41 19.7961 138.966 20.241 138.634 20.7975L138.921 20.9685ZM140.137 19.7523C140.654 19.4505 141.225 19.299 141.854 19.299V18.965C141.169 18.965 140.539 19.1308 139.968 19.4637L140.137 19.7523ZM141.854 19.299C142.613 19.299 143.235 19.52 143.734 19.9549L143.953 19.7031C143.386 19.2087 142.683 18.965 141.854 18.965V19.299ZM143.735 19.956C144.253 20.3985 144.628 20.9773 144.857 21.6986L145.176 21.5974C144.929 20.8227 144.522 20.1888 143.952 19.702L143.735 19.956ZM144.956 21.4922L139.142 23.7362L139.263 24.0478L145.077 21.8038L144.956 21.4922ZM139.357 23.8284L139.119 23.2504L138.81 23.3776L139.048 23.9556L139.357 23.8284ZM139.025 23.4696L144.346 21.3956L144.225 21.0844L138.904 23.1584L139.025 23.4696ZM144.15 21.1429L143.98 21.3809L144.251 21.5751L144.421 21.3371L144.15 21.1429ZM144.269 21.4127C144.066 20.9336 143.754 20.5213 143.338 20.1764L143.125 20.4336C143.502 20.7461 143.78 21.1157 143.962 21.5433L144.269 21.4127ZM143.34 20.1779C142.921 19.8204 142.405 19.645 141.803 19.645V19.979C142.335 19.979 142.772 20.1323 143.123 20.4321L143.34 20.1779ZM141.803 19.645C141.265 19.645 140.775 19.777 140.339 20.0435L140.514 20.3285C140.894 20.0963 141.322 19.979 141.803 19.979V19.645ZM140.339 20.0435C139.908 20.3073 139.56 20.6614 139.297 21.1036L139.584 21.2744C139.82 20.8779 140.129 20.5634 140.514 20.3285L140.339 20.0435ZM139.295 21.1066C139.042 21.5536 138.916 22.0585 138.916 22.617H139.251C139.251 22.1101 139.363 21.6631 139.586 21.2714L139.295 21.1066ZM138.916 22.617C138.916 23.1421 139.036 23.6335 139.276 24.0888L139.571 23.9332C139.358 23.5271 139.251 23.0893 139.251 22.617H138.916ZM139.277 24.0918C139.529 24.5475 139.878 24.9142 140.321 25.1898L140.498 24.9062C140.102 24.6605 139.794 24.3358 139.57 23.9302L139.277 24.0918ZM140.321 25.1898C140.77 25.4686 141.283 25.606 141.854 25.606V25.272C141.338 25.272 140.888 25.1487 140.498 24.9062L140.321 25.1898ZM141.854 25.606C142.239 25.606 142.606 25.5339 142.955 25.3893L142.828 25.0807C142.52 25.2081 142.196 25.272 141.854 25.272V25.606ZM142.954 25.3901C143.308 25.2482 143.624 25.064 143.899 24.8368L143.686 24.5792C143.44 24.7827 143.155 24.9498 142.829 25.0799L142.954 25.3901ZM143.656 24.8043L144.064 25.3823L144.337 25.1897L143.929 24.6117L143.656 24.8043ZM144.097 25.1547C143.795 25.3924 143.442 25.5885 143.036 25.7418L143.155 26.0542C143.588 25.8902 143.972 25.6782 144.304 25.4173L144.097 25.1547ZM143.035 25.7423C142.646 25.8936 142.247 25.969 141.837 25.969V26.303C142.289 26.303 142.729 26.2197 143.156 26.0537L143.035 25.7423ZM148.439 19.353L148.606 19.346L148.599 19.186H148.439V19.353ZM148.524 21.393L148.369 21.455L148.691 21.386L148.524 21.393ZM148.422 21.138L148.265 21.0813L148.243 21.141L148.267 21.2L148.422 21.138ZM149.119 20.084L149.005 19.9616L149.119 20.084ZM150.173 19.404L150.111 19.2489L150.109 19.2496L150.173 19.404ZM151.312 19.166L151.479 19.1733L151.486 18.999H151.312V19.166ZM151.278 19.948V20.115H151.438L151.445 19.9553L151.278 19.948ZM149.884 20.288L149.804 20.1411L149.803 20.142L149.884 20.288ZM148.898 21.206L148.757 21.1153L148.757 21.1163L148.898 21.206ZM148.541 26V26.167H148.708V26H148.541ZM147.742 26H147.575V26.167H147.742V26ZM147.742 19.353V19.186H147.575V19.353H147.742ZM148.272 19.36L148.357 21.4L148.691 21.386L148.606 19.346L148.272 19.36ZM148.679 21.331L148.577 21.076L148.267 21.2L148.369 21.455L148.679 21.331ZM148.579 21.1947C148.717 20.8117 148.935 20.4829 149.232 20.2064L149.005 19.9616C148.668 20.2744 148.421 20.6483 148.265 21.0813L148.579 21.1947ZM149.232 20.2064C149.536 19.9248 149.87 19.7092 150.236 19.5584L150.109 19.2496C149.705 19.4161 149.336 19.6539 149.005 19.9616L149.232 20.2064ZM150.235 19.5591C150.615 19.4069 150.974 19.333 151.312 19.333V18.999C150.924 18.999 150.524 19.0837 150.111 19.2489L150.235 19.5591ZM151.145 19.1587L151.111 19.9407L151.445 19.9553L151.479 19.1733L151.145 19.1587ZM151.278 19.781C150.742 19.781 150.25 19.9003 149.804 20.1411L149.963 20.4349C150.356 20.2224 150.793 20.115 151.278 20.115V19.781ZM149.803 20.142C149.371 20.3817 149.022 20.7065 148.757 21.1153L149.038 21.2967C149.272 20.9348 149.58 20.6476 149.965 20.434L149.803 20.142ZM148.757 21.1163C148.5 21.5191 148.374 21.9757 148.374 22.481H148.708C148.708 22.0343 148.819 21.6409 149.039 21.2957L148.757 21.1163ZM148.374 22.481V26H148.708V22.481H148.374ZM148.541 25.833H147.742V26.167H148.541V25.833ZM147.909 26V19.353H147.575V26H147.909ZM147.742 19.52H148.439V19.186H147.742V19.52ZM154.419 25.932L154.364 26.0896L154.368 26.0909L154.419 25.932ZM153.399 25.235L153.263 25.1383L153.189 25.2424L153.27 25.341L153.399 25.235ZM153.773 24.708L153.894 24.5928L153.754 24.446L153.637 24.6113L153.773 24.708ZM154.572 25.286L154.5 25.4366L154.506 25.4395L154.572 25.286ZM156.306 25.388L156.354 25.5481L156.359 25.5465L156.306 25.388ZM156.884 24.997L157.014 25.1023L156.884 24.997ZM156.833 23.535L156.715 23.6532L156.719 23.6568L156.833 23.535ZM156.17 23.127L156.104 23.2804L156.112 23.2834L156.17 23.127ZM155.337 22.821L155.285 22.9798L155.288 22.9806L155.337 22.821ZM154.13 22.175L154.019 22.2999L154.022 22.3018L154.13 22.175ZM153.926 20.067L153.787 19.9743L153.785 19.9785L153.926 20.067ZM154.657 19.438L154.73 19.5886L154.734 19.5863L154.657 19.438ZM156.731 19.37L156.678 19.5285L156.68 19.529L156.731 19.37ZM157.683 19.948L157.824 20.0377L157.898 19.9223L157.799 19.8275L157.683 19.948ZM157.326 20.509L157.191 20.6072L157.335 20.8056L157.467 20.5987L157.326 20.509ZM156.595 19.999L156.546 20.1586L156.548 20.1591L156.595 19.999ZM155.813 19.846L155.822 19.679H155.813V19.846ZM155.201 19.965L155.143 19.8083L155.141 19.8093L155.201 19.965ZM154.674 20.322L154.552 20.2083L154.551 20.2087L154.674 20.322ZM154.691 21.563L154.565 21.6725L154.569 21.6767L154.691 21.563ZM155.252 21.954L155.184 22.1063L155.186 22.1075L155.252 21.954ZM155.983 22.243L155.926 22.4001L155.934 22.4025L155.983 22.243ZM156.901 22.617L156.824 22.7653L156.831 22.7686L156.901 22.617ZM157.615 23.178L157.482 23.2794L157.488 23.2862L157.615 23.178ZM157.649 25.15L157.795 25.2311L157.796 25.2289L157.649 25.15ZM156.884 25.881L156.961 26.0294L156.963 26.0284L156.884 25.881ZM155.626 25.969C155.261 25.969 154.876 25.9045 154.471 25.7731L154.368 26.0909C154.801 26.2315 155.221 26.303 155.626 26.303V25.969ZM154.475 25.7744C154.082 25.6364 153.768 25.4208 153.528 25.129L153.27 25.341C153.552 25.6839 153.918 25.933 154.364 26.0896L154.475 25.7744ZM153.535 25.3317L153.909 24.8047L153.637 24.6113L153.263 25.1383L153.535 25.3317ZM153.652 24.8232C153.893 25.0763 154.176 25.2807 154.5 25.4365L154.645 25.1355C154.356 24.9966 154.106 24.8157 153.894 24.5928L153.652 24.8232ZM154.506 25.4395C154.845 25.5846 155.202 25.657 155.575 25.657V25.323C155.246 25.323 154.934 25.2594 154.638 25.1325L154.506 25.4395ZM155.575 25.657C155.851 25.657 156.11 25.6211 156.354 25.548L156.258 25.228C156.049 25.2909 155.821 25.323 155.575 25.323V25.657ZM156.359 25.5465C156.625 25.4578 156.845 25.3101 157.014 25.1023L156.755 24.8917C156.629 25.0465 156.464 25.1595 156.253 25.2295L156.359 25.5465ZM157.014 25.1023C157.192 24.8831 157.272 24.5984 157.272 24.266H156.938C156.938 24.5456 156.871 24.7483 156.755 24.8917L157.014 25.1023ZM157.272 24.266C157.272 23.916 157.171 23.6229 156.947 23.4132L156.719 23.6568C156.858 23.7871 156.938 23.9813 156.938 24.266H157.272ZM156.951 23.4169C156.761 23.2269 156.519 23.0793 156.229 22.9706L156.112 23.2834C156.366 23.3787 156.565 23.5031 156.715 23.6531L156.951 23.4169ZM156.237 22.9738C155.97 22.8578 155.686 22.7537 155.386 22.6614L155.288 22.9806C155.577 23.0696 155.849 23.1695 156.104 23.2802L156.237 22.9738ZM155.389 22.6622C154.918 22.5088 154.536 22.303 154.239 22.0482L154.022 22.3018C154.359 22.591 154.782 22.8158 155.286 22.9798L155.389 22.6622ZM154.241 22.0502C153.978 21.8167 153.838 21.4813 153.838 21.019H153.504C153.504 21.5541 153.67 21.9893 154.019 22.2998L154.241 22.0502ZM153.838 21.019C153.838 20.6834 153.917 20.3976 154.068 20.1555L153.785 19.9785C153.596 20.2804 153.504 20.6292 153.504 21.019H153.838ZM154.065 20.1596C154.229 19.9135 154.45 19.7234 154.73 19.5885L154.585 19.2875C154.253 19.4473 153.986 19.6765 153.787 19.9744L154.065 20.1596ZM154.734 19.5863C155.014 19.4413 155.332 19.367 155.694 19.367V19.033C155.285 19.033 154.913 19.1173 154.58 19.2897L154.734 19.5863ZM155.694 19.367C156.027 19.367 156.355 19.4207 156.678 19.5285L156.784 19.2115C156.427 19.0927 156.064 19.033 155.694 19.033V19.367ZM156.68 19.529C157.006 19.634 157.301 19.8129 157.568 20.0685L157.799 19.8275C157.498 19.5391 157.159 19.3326 156.782 19.211L156.68 19.529ZM157.542 19.8583L157.185 20.4193L157.467 20.5987L157.824 20.0377L157.542 19.8583ZM157.461 20.4108C157.258 20.1306 156.983 19.9396 156.643 19.8389L156.548 20.1591C156.82 20.2398 157.032 20.3887 157.191 20.6072L157.461 20.4108ZM156.644 19.8394C156.341 19.746 156.066 19.6914 155.822 19.6792L155.805 20.0128C156.014 20.0233 156.26 20.0707 156.546 20.1586L156.644 19.8394ZM155.813 19.679C155.597 19.679 155.374 19.7234 155.143 19.8083L155.259 20.1217C155.459 20.0479 155.644 20.013 155.813 20.013V19.679ZM155.141 19.8093C154.913 19.8977 154.717 20.031 154.552 20.2083L154.797 20.4356C154.927 20.2957 155.081 20.191 155.262 20.1207L155.141 19.8093ZM154.551 20.2087C154.381 20.3939 154.303 20.6364 154.303 20.917H154.637C154.637 20.699 154.696 20.5447 154.797 20.4353L154.551 20.2087ZM154.303 20.917C154.303 21.2111 154.387 21.4673 154.565 21.6724L154.817 21.4536C154.701 21.3187 154.637 21.1442 154.637 20.917H154.303ZM154.569 21.6767C154.733 21.8539 154.94 21.9965 155.184 22.1063L155.321 21.8017C155.111 21.7075 154.944 21.5894 154.814 21.4494L154.569 21.6767ZM155.186 22.1075C155.427 22.2108 155.674 22.3083 155.926 22.4L156.04 22.086C155.794 21.9964 155.553 21.9012 155.318 21.8005L155.186 22.1075ZM155.934 22.4025C156.254 22.5018 156.55 22.6228 156.824 22.7652L156.978 22.4688C156.685 22.3166 156.37 22.1882 156.033 22.0835L155.934 22.4025ZM156.831 22.7686C157.103 22.8942 157.319 23.0647 157.482 23.2792L157.748 23.0768C157.549 22.8153 157.288 22.6118 156.971 22.4654L156.831 22.7686ZM157.488 23.2862C157.648 23.4746 157.737 23.7384 157.737 24.096H158.071C158.071 23.683 157.968 23.3347 157.742 23.0698L157.488 23.2862ZM157.737 24.096C157.737 24.4558 157.658 24.7798 157.502 25.0711L157.796 25.2289C157.98 24.8856 158.071 24.5069 158.071 24.096H157.737ZM157.503 25.0689C157.35 25.344 157.12 25.5658 156.806 25.7336L156.963 26.0284C157.328 25.8335 157.608 25.568 157.795 25.2311L157.503 25.0689ZM156.807 25.7326C156.51 25.8866 156.119 25.969 155.626 25.969V26.303C156.153 26.303 156.601 26.2154 156.961 26.0294L156.807 25.7326Z" fill="#E5BE2C"/>
</svg>
